<svg id="Layer_1" data-name="Layer 1" xmlns="http://www.w3.org/2000/svg" viewBox="0 0 141.45 109.95"><path d="M56.36,90.27h72.8A9.87,9.87,0,0,0,139,80.43V30.21A128.52,128.52,0,0,1,56.36,90.27Z" style="fill:#858686"/><path d="M65.57,96a6.52,6.52,0,0,0-5,2.8l-2.32,3.77c-.94,1.54-.24,2.79,1.57,2.79h42.54c1.81,0,2.51-1.25,1.57-2.79l-2.32-3.77a6.52,6.52,0,0,0-5-2.8Z" style="fill:#858686"/><path d="M30.26,7.29v13.2h9a3.29,3.29,0,0,1,3.28,3.28v9H53.45V18.52H41.71a3.29,3.29,0,0,1-3.28-3.28V7.15H31.12a8.12,8.12,0,0,0-.86,0Z" style="fill:#5cc5f2"/><path d="M25.53,54a3.28,3.28,0,0,1,3.28-3.28h6.7V39.74H30.26v7A3.29,3.29,0,0,1,27,50h-5.7V60.67h4.25Z" style="fill:#5cc5f2"/><path d="M31.12,90.27c42,0,96.71-39.16,104.12-81a9.74,9.74,0,0,0-6.08-2.12H60.45v4.37H78.39a3.29,3.29,0,0,1,3.28,3.28V36.46a3.29,3.29,0,0,1-3.28,3.28H60.45V50.68h9.77A3.28,3.28,0,0,1,73.5,54V67.45a3.29,3.29,0,0,1-3.28,3.28H56.73a3.29,3.29,0,0,1-3.28-3.28V57.68H42.51v6.71a3.29,3.29,0,0,1-3.28,3.28h-6.7v12A3.3,3.3,0,0,1,29.24,83H21.62A9.8,9.8,0,0,0,31.12,90.27Z" style="fill:#5cc5f2"/><rect x="26.76" y="23.99" width="12.25" height="12.25" rx="3.28" style="fill:#5cc5f2"/><rect x="16.48" y="36.24" width="10.28" height="10.28" rx="3.28" style="fill:#5cc5f2"/><rect x="10.29" y="7.51" width="16.48" height="16.48" rx="3.28" style="fill:#5cc5f2"/><rect x="39.01" y="36.24" width="17.94" height="17.94" rx="3.28" style="fill:#5cc5f2"/><rect x="56.95" y="54.18" width="13.05" height="13.05" rx="3.28" style="fill:#5cc5f2"/><rect x="56.95" y="15.02" width="21.22" height="21.22" rx="3.28" style="fill:#5cc5f2"/><rect x="41.93" width="15.02" height="15.02" rx="3.28" style="fill:#5cc5f2"/><rect x="29.03" y="54.18" width="9.99" height="9.99" rx="3.28" style="fill:#5cc5f2"/><rect x="13.71" y="64.17" width="15.31" height="15.31" rx="3.28" style="fill:#5cc5f2"/><rect x="3.72" y="54.18" width="9.99" height="9.99" rx="3.28" style="fill:#5cc5f2"/></svg>